<svg width="480" height="152" viewBox="0 0 480 152"
     xmlns="http://www.w3.org/2000/svg" role="img"
     aria-label="Bharath2's GitHub stats">
  <style>
    .card { fill: #fffefe; stroke: #e4e2e2; }
    .title { font: 600 18px 'Segoe UI', Ubuntu, Sans-Serif; fill: #2f80ed; }
    .label { font: 400 14px 'Segoe UI', Ubuntu, Sans-Serif; fill: #434d58; }
    .value { font: 600 14px 'Segoe UI', Ubuntu, Sans-Serif; fill: #434d58; text-anchor: end; }
    .icon { fill: #4c71f2; }
    @media (prefers-color-scheme: dark) {
      .card { fill: #0d1117; stroke: #30363d; }
      .title { fill: #58a6ff; }
      .label, .value { fill: #c9d1d9; }
      .icon { fill: #58a6ff; }
    }
  </style>
  <rect class="card" x="0.5" y="0.5" width="479" height="151" rx="4.5"/>
  <text x="25" y="35" class="title">Bharath2's GitHub Stats</text>
    <text x="25" y="62" class="label">Total Stars Earned</text>
    <text x="429" y="62" class="value">387</text>
    <g transform="translate(439 50)"><path fill="#ffd700" fill-rule="evenodd" d="M8 .25a.75.75 0 01.673.418l1.882 3.815 4.21.612a.75.75 0 01.416 1.279l-3.046 2.97.719 4.192a.75.75 0 01-1.088.791L8 12.347l-3.766 1.98a.75.75 0 01-1.088-.79l.72-4.194L.818 6.374a.75.75 0 01.416-1.28l4.21-.611L7.327.668A.75.75 0 018 .25z"/></g>
    <text x="25" y="88" class="label">Total Commits (past year)</text>
    <text x="429" y="88" class="value">116</text>
    <g transform="translate(439 76)"><path class="icon" fill-rule="evenodd" d="M10.5 7.75a2.5 2.5 0 11-5 0 2.5 2.5 0 015 0zm1.43.75a4.002 4.002 0 01-7.86 0H.75a.75.75 0 110-1.5h3.32a4.001 4.001 0 017.86 0h3.32a.75.75 0 110 1.5h-3.32z"/></g>
    <text x="25" y="114" class="label">Followers</text>
    <text x="429" y="114" class="value">28</text>
    <g transform="translate(439 102)"><path class="icon" fill-rule="evenodd" d="M5.5 3.5a2 2 0 100 4 2 2 0 000-4zM2 5.5a3.5 3.5 0 115.898 2.549 5.507 5.507 0 013.034 4.084.75.75 0 11-1.482.235 4.001 4.001 0 00-7.9 0 .75.75 0 01-1.482-.236A5.507 5.507 0 013.102 8.05 3.49 3.49 0 012 5.5zM11 4a.75.75 0 100 1.5 1.5 1.5 0 01.666 2.844.75.75 0 00-.416.672v.352a.75.75 0 00.574.73c1.2.289 2.162 1.2 2.522 2.372a.75.75 0 101.434-.44 5.01 5.01 0 00-2.56-3.012A3 3 0 0011 4z"/></g>
</svg>
